<svg width="160" height="100" viewBox="0 0 160 100" fill="none" xmlns="http://www.w3.org/2000/svg">
<g clip-path="url(#clip0_521_200)">
<path d="M125.864 26.1251L122.076 10.2551L88.8444 15.8632L85.0559 -0.00671387L-0.0214844 14.2824L17.9366 89.7245L51.1681 84.1461L54.9567 100.016L140.034 85.7271L159.096 20.5765L125.864 26.1251Z" fill="#FBB92F"/>
<path d="M17.966 89.7244L60.0572 82.6545L54.9859 99.9862L140.063 85.6972L125.894 26.1251L117.034 27.6166L122.105 10.2849L37.0278 24.5739L17.9658 89.7244H17.966Z" fill="#F79420"/>
<path d="M102.955 75.4355L116.945 27.6167L92.5437 31.7035L88.7552 15.8335L36.9092 24.544L51.1086 84.1162L59.9386 82.6247L102.955 75.4355Z" fill="#F37A23"/>
<path d="M74.1977 34.8358L60.207 82.6545L103.193 75.4355L92.7822 31.7035L74.1977 34.8358Z" fill="#E46025"/>
</g>
<defs>
<clipPath id="clip0_521_200">
<rect width="159.095" height="100" fill="white"/>
</clipPath>
</defs>
</svg>
