<svg width="514" height="100" viewBox="0 0 514 100" fill="none" xmlns="http://www.w3.org/2000/svg">
<g clip-path="url(#clip0_520_100)">
<path d="M82.355 18.3019L54.9033 2.45616C52.1211 0.849901 48.9652 0.00427246 45.7527 0.00427246C42.5401 0.00427246 39.3842 0.849901 36.6021 2.45616L19.0635 12.5828V33.7207L45.7527 18.3019L73.2044 34.1477V65.8544L91.5056 76.4234V34.1477C91.505 30.9358 90.659 27.7805 89.0528 24.9991C87.4466 22.2176 85.1366 19.9079 82.355 18.3019Z" fill="white"/>
<path d="M45.7529 81.6992L18.3012 65.8534V34.1467L0 23.5778V65.8534C0.000616951 69.0654 0.846538 72.2206 2.45277 75.002C4.059 77.7835 6.36897 80.0932 9.15058 81.6992L36.6023 97.606C39.3845 99.2122 42.5404 100.058 45.7529 100.058C48.9654 100.058 52.1214 99.2122 54.9035 97.606L72.4421 87.4793V66.2957L45.7529 81.6992Z" fill="white"/>
</g>
<g clip-path="url(#clip1_520_100)">
<path d="M141.228 13.7162C141.228 13.4967 142.325 12.9478 143.67 12.9478C146.113 12.9478 148.446 14.1554 148.446 19.9464V44.3181C150.629 41.1551 153.567 38.5871 156.994 36.8474C160.421 35.1076 164.228 34.251 168.069 34.3554C182.039 34.3554 193.017 45.3336 193.017 61.9657C193.017 78.5977 182.396 89.7955 167.63 89.7955C158.079 89.7955 151.328 85.3493 148.418 80.3817V85.4591C148.418 88.2037 147.183 88.9173 145.289 88.9173H144.439C142.545 88.9173 141.228 88.1214 141.228 85.4591V13.7162ZM167.054 83.483C178.252 83.483 185.689 74.8377 185.689 62.0754C185.689 49.3132 177.922 40.6678 167.273 40.6678C163.207 40.5408 159.201 41.6792 155.809 43.9259C152.417 46.1725 149.806 49.4166 148.336 53.2105V65.6159C148.473 70.4595 150.515 75.0533 154.02 78.399C157.525 81.7447 162.209 83.5718 167.054 83.483Z" fill="white"/>
<path d="M202.898 13.7162C202.898 13.4967 203.996 12.9478 205.341 12.9478C207.784 12.9478 210.117 14.1554 210.117 19.9464V85.4591C210.117 88.2037 208.772 88.9173 206.878 88.9173H206.11C204.216 88.9173 202.898 88.1214 202.898 85.4591V13.7162Z" fill="white"/>
<path d="M222.549 38.6635C222.549 35.9189 223.866 35.2328 225.76 35.2328H226.528C228.422 35.2328 229.767 36.0013 229.767 38.6635V66.1091C229.767 76.758 235.064 83.098 244.505 83.098C248.103 83.0744 251.615 81.9992 254.609 80.0046C257.604 78.0101 259.949 75.1835 261.357 71.8727V38.6635C261.357 35.9189 262.702 35.2328 264.568 35.2328H265.364C267.23 35.2328 268.575 36.0013 268.575 38.6635V88.0656C268.242 88.3552 267.854 88.5749 267.435 88.7116C267.015 88.8483 266.572 88.8993 266.132 88.8616C263.69 88.8616 261.467 87.6265 261.467 81.8629V80.2162C259.538 83.2086 256.876 85.659 253.735 87.3353C250.594 89.0115 247.077 89.858 243.517 89.7947C229.52 89.7947 222.549 80.4906 222.549 66.5208V38.6635Z" fill="white"/>
<path d="M304.804 34.355C319.679 34.355 329.505 44.8941 329.505 60.9772V61.6359C329.505 63.612 328.736 64.0786 326.513 64.0786H285.345C285.38 66.6636 285.93 69.2158 286.961 71.5865C287.992 73.9571 289.485 76.0988 291.352 77.8869C293.219 79.6749 295.424 81.0735 297.837 82.0013C300.25 82.929 302.824 83.3673 305.408 83.2905C315.727 83.2905 320.393 78.8444 323.494 73.8493C324.057 73.8383 324.616 73.9383 325.139 74.1434C325.663 74.3486 326.141 74.6549 326.546 75.0448C326.951 75.4348 327.276 75.9007 327.501 76.4161C327.726 76.9315 327.848 77.4861 327.858 78.0484C327.858 81.6987 319.789 89.7952 305.463 89.7952C289.434 89.7952 278.182 78.4876 278.182 62.3495C278.182 46.2115 289.434 34.355 304.804 34.355ZM321.765 57.8484C321.107 47.4465 314.684 40.6675 304.804 40.6675C300.042 40.6408 295.439 42.3838 291.889 45.5584C288.34 48.733 286.095 53.1128 285.592 57.8484H321.765Z" fill="white"/>
<path d="M339.001 13.7162C339.001 13.4967 340.099 12.9478 341.444 12.9478C343.886 12.9478 346.192 14.1554 346.192 19.9464V44.0986C348.066 41.0616 350.7 38.5658 353.833 36.8572C356.966 35.1486 360.491 34.2863 364.059 34.3554C378.029 34.3554 385.027 43.6594 385.027 57.6293V85.4591C385.027 88.2037 383.682 88.9173 381.789 88.9173H381.02C379.127 88.9173 377.809 88.1214 377.809 85.4591V58.0135C377.809 47.392 372.485 41.0521 363.62 41.0521C353.19 41.0521 346.192 48.1605 346.192 59.1388V85.4042C346.192 88.1488 344.874 88.8624 342.981 88.8624H342.212C340.318 88.8624 339.001 88.0665 339.001 85.4042V13.7162Z" fill="white"/>
<path d="M396.473 17.7227C396.394 17.079 396.462 16.4257 396.672 15.8121C396.882 15.1985 397.229 14.6407 397.686 14.1808C398.144 13.7208 398.7 13.3708 399.312 13.1571C399.924 12.9434 400.577 12.8716 401.221 12.9472C401.864 12.8628 402.517 12.9292 403.129 13.1411C403.741 13.353 404.296 13.7046 404.749 14.168C405.201 14.6314 405.54 15.1939 405.738 15.8109C405.935 16.4279 405.986 17.0825 405.887 17.7227C405.887 18.9892 405.384 20.2039 404.488 21.0995C403.593 21.9951 402.378 22.4982 401.111 22.4982C399.845 22.4982 398.63 21.9951 397.735 21.0995C396.839 20.2039 396.336 18.9892 396.336 17.7227H396.473ZM397.598 38.6637C397.598 35.9192 398.916 35.233 400.81 35.233H401.578C403.472 35.233 404.789 36.0015 404.789 38.6637V85.4585C404.789 88.2031 403.472 88.9167 401.578 88.9167H400.81C398.916 88.9167 397.598 88.1208 397.598 85.4585V38.6637Z" fill="white"/>
<path d="M411.704 37.3461C411.704 36.907 412.72 35.2328 415.272 35.2328C417.824 35.2328 419.032 36.2208 420.761 40.5572L436.268 82.0276L452.132 40.5572C453.806 36.2208 455.123 35.2328 457.346 35.2328C459.569 35.2328 460.996 37.0168 460.887 37.3461L441.483 86.2542C440.714 88.1205 439.946 89.136 436.268 89.136C432.59 89.136 432.179 88.3401 431.383 86.3915L411.704 37.3461Z" fill="white"/>
<path d="M489.21 34.355C504.058 34.355 513.911 44.8941 513.911 60.9772V61.6359C513.911 63.612 513.115 64.0786 510.92 64.0786H469.806C469.841 66.6636 470.391 69.2158 471.422 71.5865C472.453 73.9571 473.946 76.0988 475.813 77.8869C477.681 79.6749 479.885 81.0735 482.298 82.0013C484.711 82.929 487.285 83.3673 489.869 83.2905C500.188 83.2905 504.827 78.8444 507.956 73.8493C509.051 73.8628 510.099 74.2984 510.881 75.0653C511.663 75.8322 512.119 76.8712 512.155 77.9661C512.155 81.6164 504.168 89.7128 489.869 89.7128C473.786 89.7128 462.588 78.4052 462.588 62.2672C462.588 46.1292 473.896 34.355 489.21 34.355ZM506.254 57.8484C505.595 47.4465 499.145 40.6675 489.293 40.6675C484.53 40.6408 479.928 42.3838 476.378 45.5584C472.828 48.733 470.584 53.1128 470.081 57.8484H506.254Z" fill="white"/>
</g>
<defs>
<clipPath id="clip0_520_100">
<rect width="91.5058" height="100.001" fill="white"/>
</clipPath>
<clipPath id="clip1_520_100">
<rect width="372.602" height="76.8478" fill="white" transform="translate(141.228 12.9478)"/>
</clipPath>
</defs>
</svg>
