<svg width="100" height="100" viewBox="0 0 100 100" fill="none" xmlns="http://www.w3.org/2000/svg">
<path d="M60.999 6.16667L61.8323 0L37.666 6.5L42.1659 17.5L35.166 24.5L49.9991 20.5L60.999 6.16667Z" fill="#FFD52E"/>
<path d="M60.9989 6.16699L49.999 20.5003L59.4989 18.0003L60.9989 6.16699Z" fill="#FCBA2F"/>
<path d="M37.6654 6.50004L35.3321 0.833374L17.499 18.5L26.9989 25.8334L24.4989 35.3334L35.1654 24.5L37.6654 6.50004Z" fill="#FFD52E"/>
<path d="M37.666 6.49988L35.166 24.4999L42.1659 17.4999L37.666 6.49988Z" fill="#FCBA2F"/>
<path d="M17.4992 18.4997L12.6659 14.6664L6.16602 38.9997L17.9992 40.4997L20.4991 49.9997L24.4991 35.3331L17.4992 18.4997Z" fill="#FFD52E"/>
<path d="M17.499 18.5001L24.4989 35.3335L26.9989 25.8335L17.499 18.5001Z" fill="#FCBA2F"/>
<path d="M6.16657 38.9998L0 38.1665L6.4999 62.3332L17.4997 57.8332L24.4996 64.8332L20.4997 49.9998L6.16657 38.9998Z" fill="#FFD52E"/>
<path d="M6.16602 38.9999L20.4991 49.9999L17.9992 40.4999L6.16602 38.9999Z" fill="#FCBA2F"/>
<path d="M6.49959 62.3331L0.833008 64.6665L18.4994 82.4998L25.8326 72.9998L35.3325 75.4998L24.4993 64.8331L6.49959 62.3331Z" fill="#FFD52E"/>
<path d="M6.5 62.3336L24.4997 64.8336L17.4998 57.8336L6.5 62.3336Z" fill="#FCBA2F"/>
<path d="M18.4993 82.4998L14.666 87.3331L38.999 93.8331L40.499 81.9998L49.9988 79.4998L35.3324 75.4998L18.4993 82.4998Z" fill="#FFD52E"/>
<path d="M18.499 82.4996L35.3321 75.4996L25.8322 72.9996L18.499 82.4996Z" fill="#FCBA2F"/>
<path d="M38.9993 93.8331L38.166 99.9998L62.3323 93.4998L57.8324 82.4998L64.8323 75.4998L49.9992 79.4998L38.9993 93.8331Z" fill="#FFD52E"/>
<path d="M38.999 93.8336L49.9989 79.5002L40.499 82.0002L38.999 93.8336Z" fill="#FCBA2F"/>
<path d="M62.332 93.4997L64.6653 99.1664L82.4984 81.4997L72.9985 74.1664L75.4985 64.6664L64.832 75.4997L62.332 93.4997Z" fill="#FFD52E"/>
<path d="M62.332 93.4998L64.8319 75.4998L57.832 82.4998L62.332 93.4998Z" fill="#FCBA2F"/>
<path d="M82.4989 81.5L87.3322 85.3333L93.8321 61L81.9989 59.5L79.499 50L75.499 64.6667L82.4989 81.5Z" fill="#FFD52E"/>
<path d="M82.4989 81.4997L75.499 64.6664L72.999 74.1664L82.4989 81.4997Z" fill="#FCBA2F"/>
<path d="M93.8321 61.0002L99.9987 61.8335L93.4988 37.6669L82.4989 42.1669L75.499 35.1669L79.499 50.0002L93.8321 61.0002Z" fill="#FFD52E"/>
<path d="M93.8312 61L79.498 50L81.998 59.5L93.8312 61Z" fill="#FCBA2F"/>
<path d="M93.4989 37.6667L99.1655 35.3333L81.4991 17.5L74.1659 27L64.666 24.5L75.4992 35.1667L93.4989 37.6667Z" fill="#FFD52E"/>
<path d="M93.4988 37.6669L75.499 35.1669L82.4989 42.1669L93.4988 37.6669Z" fill="#FCBA2F"/>
<path d="M81.4986 17.5003L85.3318 12.667L60.9989 6.16699L59.4989 18.0003L49.999 20.5003L64.6655 24.5003L81.4986 17.5003Z" fill="#FFD52E"/>
<path d="M81.4991 17.5L64.666 24.5L74.1659 27L81.4991 17.5Z" fill="#FCBA2F"/>
</svg>
