<svg width="401" height="100" viewBox="0 0 401 100" fill="none" xmlns="http://www.w3.org/2000/svg">
<g clip-path="url(#clip0_310_5)">
<path d="M113.832 53.6665C114.165 54.6665 114.498 55.6665 115.165 56.4999C115.832 57.3332 116.498 57.9999 117.332 58.4999C118.165 58.9999 119.332 59.3332 120.665 59.3332C122.665 59.3332 124.165 58.8332 125.165 57.8332C126.331 56.8332 126.998 55.4999 127.498 53.8332H130.165C129.665 56.3332 128.498 58.1665 126.998 59.6665C125.498 60.9999 123.332 61.6665 120.498 61.6665C118.832 61.6665 117.332 61.3332 115.998 60.8332C114.665 60.1665 113.665 59.3332 112.998 58.3332C112.165 57.3332 111.665 55.9999 111.165 54.6665C110.832 53.3332 110.665 51.8332 110.665 50.1665C110.665 48.6665 110.832 47.3332 111.165 45.9999C111.498 44.6665 112.165 43.3332 112.998 42.3332C113.832 41.1665 114.832 40.3332 115.998 39.6665C117.332 38.9999 118.832 38.6665 120.498 38.6665C122.332 38.6665 123.832 38.9999 124.998 39.6665C126.165 40.3332 127.331 41.3332 127.998 42.4999C128.831 43.6665 129.331 44.9999 129.665 46.4999C129.998 47.9999 130.165 49.4999 130.165 50.9999H113.332C113.332 51.6665 113.498 52.6665 113.832 53.6665ZM126.998 45.4999C126.665 44.4999 126.165 43.6665 125.665 42.9999C124.998 42.3332 124.331 41.6665 123.498 41.3332C122.665 40.8332 121.665 40.6665 120.665 40.6665C119.498 40.6665 118.665 40.8332 117.665 41.3332C116.832 41.8332 116.165 42.3332 115.498 42.9999C114.832 43.6665 114.498 44.4999 113.998 45.4999C113.665 46.4999 113.332 47.4999 113.332 48.3332H127.498C127.498 47.4999 127.331 46.4999 126.998 45.4999ZM135.998 38.9999V42.8332H136.165C136.665 41.4999 137.498 40.4999 138.831 39.6665C140.165 38.8332 141.498 38.4999 143.165 38.4999C144.665 38.4999 145.998 38.6665 146.998 39.1665C147.998 39.4999 148.831 40.1665 149.498 40.8332C150.164 41.4999 150.498 42.4999 150.831 43.4999C151.164 44.4999 151.164 45.6665 151.164 46.9999V60.9999H148.331V47.3332C148.331 46.3332 148.164 45.4999 147.998 44.6665C147.831 43.8332 147.498 43.1665 147.164 42.4999C146.665 41.8332 146.165 41.4999 145.498 41.1665C144.831 40.8332 143.831 40.6665 142.831 40.6665C141.831 40.6665 140.831 40.8332 139.998 41.1665C139.165 41.4999 138.498 41.9999 137.831 42.6665C137.331 43.3332 136.831 44.1665 136.498 44.9999C136.165 45.9999 135.998 46.9999 135.998 47.9999V60.8332H133.331V38.9999H135.998ZM163.498 38.9999V41.1665H158.998V55.9999C158.998 56.8332 159.164 57.4999 159.331 57.9999C159.498 58.4999 160.164 58.8332 161.164 58.8332C161.998 58.8332 162.664 58.8332 163.498 58.6665V60.8332H161.164C159.331 60.8332 158.164 60.4999 157.498 59.8332C156.831 59.1665 156.498 57.8332 156.498 55.9999V40.9999H152.664V38.8332H156.498V33.3332H159.164V38.9999H163.498ZM167.331 53.6665C167.664 54.6665 167.998 55.6665 168.664 56.4999C169.331 57.3332 169.997 57.9999 170.831 58.4999C171.664 58.9999 172.831 59.3332 174.164 59.3332C176.164 59.3332 177.664 58.8332 178.664 57.8332C179.831 56.8332 180.497 55.4999 180.997 53.8332H183.664C183.164 56.3332 181.997 58.1665 180.497 59.6665C178.997 60.9999 176.831 61.6665 173.997 61.6665C172.331 61.6665 170.831 61.3332 169.497 60.8332C168.164 60.1665 167.164 59.3332 166.498 58.3332C165.664 57.3332 165.164 55.9999 164.664 54.6665C164.331 53.3332 164.164 51.8332 164.164 50.1665C164.164 48.6665 164.331 47.3332 164.664 45.9999C164.998 44.6665 165.664 43.3332 166.498 42.3332C167.331 41.1665 168.331 40.3332 169.497 39.6665C170.831 38.9999 172.331 38.6665 173.997 38.6665C175.831 38.6665 177.331 38.9999 178.497 39.6665C179.664 40.3332 180.831 41.3332 181.497 42.4999C182.331 43.6665 182.831 44.9999 183.164 46.4999C183.497 47.9999 183.664 49.4999 183.664 50.9999H166.831C166.998 51.6665 167.164 52.6665 167.331 53.6665ZM180.664 45.4999C180.331 44.4999 179.831 43.6665 179.331 42.9999C178.664 42.3332 177.997 41.6665 177.164 41.3332C176.331 40.8332 175.331 40.6665 174.331 40.6665C173.164 40.6665 172.331 40.8332 171.331 41.3332C170.497 41.8332 169.831 42.3332 169.164 42.9999C168.498 43.6665 168.164 44.4999 167.664 45.4999C167.331 46.4999 166.998 47.4999 166.998 48.3332H181.164C181.164 47.4999 180.831 46.4999 180.664 45.4999ZM189.331 38.9999V44.1665H189.497C190.164 42.3332 191.164 40.9999 192.664 39.9999C194.164 38.9999 195.83 38.6665 197.83 38.6665V41.3332C196.664 41.3332 195.497 41.4999 194.497 41.8332C193.497 42.1665 192.664 42.8332 191.997 43.4999C191.33 44.1665 190.664 44.9999 190.331 45.9999C189.997 46.9999 189.664 47.9999 189.664 49.1665V60.8332H186.997V38.9999H189.331ZM202.497 38.9999V43.1665H202.664C203.33 41.6665 204.33 40.4999 205.664 39.6665C206.997 38.8332 208.664 38.3332 210.497 38.3332C212.164 38.3332 213.663 38.6665 214.83 39.3332C215.997 39.9999 217.163 40.8332 217.83 41.8332C218.663 42.8332 219.33 44.1665 219.663 45.4999C219.997 46.8332 220.33 48.3332 220.33 49.9999C220.33 51.4999 220.163 52.9999 219.663 54.4999C219.33 55.8332 218.663 57.1665 217.83 58.1665C216.997 59.1665 215.997 59.9999 214.83 60.6665C213.663 61.3332 212.164 61.4999 210.497 61.4999C209.664 61.4999 208.83 61.3332 208.164 61.1665C207.33 60.9999 206.664 60.6665 205.997 60.3332C205.33 59.9999 204.664 59.4999 204.164 58.8332C203.664 58.1665 203.164 57.4999 202.997 56.8332H202.83V68.9999H199.997V38.9999H202.497ZM217.163 46.6665C216.83 45.4999 216.497 44.4999 215.83 43.6665C215.33 42.8332 214.497 41.9999 213.663 41.4999C212.83 40.9999 211.664 40.6665 210.33 40.6665C208.83 40.6665 207.664 40.9999 206.664 41.4999C205.664 41.9999 204.83 42.6665 204.33 43.4999C203.664 44.3332 203.33 45.3332 202.997 46.4999C202.83 47.6665 202.664 48.8332 202.664 49.9999C202.664 51.1665 202.83 52.3332 202.997 53.3332C203.33 54.4999 203.664 55.4999 204.33 56.3332C204.997 57.1665 205.664 57.9999 206.664 58.4999C207.664 58.9999 208.83 59.3332 210.33 59.3332C211.664 59.3332 212.664 58.9999 213.663 58.4999C214.497 57.9999 215.33 57.1665 215.83 56.3332C216.33 55.4999 216.83 54.4999 217.163 53.3332C217.497 52.1665 217.497 51.1665 217.497 49.9999C217.497 48.8332 217.33 47.6665 217.163 46.6665ZM225.83 38.9999V44.1665H225.997C226.663 42.3332 227.663 40.9999 229.163 39.9999C230.663 38.9999 232.33 38.6665 234.33 38.6665V41.3332C233.163 41.3332 231.997 41.4999 230.997 41.8332C229.997 42.1665 229.163 42.8332 228.497 43.4999C227.83 44.1665 227.163 44.9999 226.83 45.9999C226.497 46.9999 226.163 47.9999 226.163 49.1665V60.8332H223.33V38.9999H225.83ZM256.496 43.3332C256.163 42.6665 255.83 42.1665 255.163 41.8332C254.663 41.4999 253.996 41.1665 253.33 40.9999C252.663 40.8332 251.996 40.6665 251.163 40.6665C250.496 40.6665 249.996 40.6665 249.33 40.8332C248.663 40.9999 248.163 41.1665 247.663 41.4999C247.163 41.8332 246.663 42.1665 246.496 42.6665C246.163 43.1665 245.996 43.6665 245.996 44.4999C245.996 45.1665 246.163 45.6665 246.496 45.9999C246.83 46.3332 247.163 46.8332 247.663 46.9999C248.163 47.3332 248.663 47.4999 249.163 47.6665L250.663 48.1665L254.163 48.9999C254.996 49.1665 255.663 49.3332 256.496 49.6665C257.163 49.9999 257.83 50.3332 258.496 50.8332C258.996 51.3332 259.496 51.8332 259.996 52.6665C260.329 53.3332 260.496 54.1665 260.496 55.1665C260.496 56.3332 260.163 57.3332 259.663 58.1665C259.163 58.9999 258.496 59.6665 257.663 60.1665C256.83 60.6665 255.83 60.9999 254.83 61.3332C253.83 61.4999 252.83 61.6665 251.663 61.6665C249.163 61.6665 246.996 60.9999 245.33 59.8332C243.663 58.6665 242.83 56.6665 242.663 53.9999H245.33C245.496 55.8332 246.163 57.1665 247.33 58.1665C248.496 59.1665 249.996 59.4999 251.83 59.4999C252.496 59.4999 253.163 59.4999 253.83 59.3332C254.496 59.1665 255.163 58.9999 255.83 58.6665C256.496 58.3332 256.83 57.8332 257.33 57.3332C257.663 56.8332 257.83 56.1665 257.83 55.3332C257.83 54.6665 257.663 54.1665 257.496 53.6665C257.163 53.1665 256.83 52.8332 256.33 52.4999C255.83 52.1665 255.33 51.9999 254.83 51.8332C254.33 51.6665 253.663 51.4999 252.996 51.3332L249.496 50.4999C248.663 50.3332 247.83 49.9999 246.996 49.6665C246.33 49.3332 245.663 48.9999 244.996 48.4999C244.496 47.9999 243.996 47.4999 243.663 46.8332C243.33 46.1665 243.163 45.3332 243.163 44.4999C243.163 43.3332 243.33 42.4999 243.83 41.6665C244.33 40.8332 244.996 40.1665 245.83 39.8332C246.663 39.3332 247.496 38.9999 248.496 38.8332C249.496 38.6665 250.496 38.4999 251.33 38.4999C252.496 38.4999 253.496 38.6665 254.33 38.9999C255.33 39.3332 256.163 39.6665 256.83 40.3332C257.496 40.9999 258.163 41.6665 258.496 42.4999C258.996 43.3332 259.163 44.3332 259.163 45.6665H256.496C256.83 44.6665 256.663 43.9999 256.496 43.3332ZM265.329 53.6665C265.663 54.6665 265.996 55.6665 266.663 56.4999C267.329 57.3332 267.996 57.9999 268.829 58.4999C269.663 58.9999 270.829 59.3332 272.163 59.3332C274.163 59.3332 275.663 58.8332 276.663 57.8332C277.829 56.8332 278.496 55.4999 278.996 53.8332H281.662C281.162 56.3332 279.996 58.1665 278.496 59.6665C276.996 60.9999 274.829 61.6665 271.996 61.6665C270.329 61.6665 268.829 61.3332 267.496 60.8332C266.163 60.1665 265.163 59.3332 264.496 58.3332C263.663 57.3332 263.163 55.9999 262.663 54.6665C262.329 53.3332 262.163 51.8332 262.163 50.1665C262.163 48.6665 262.329 47.3332 262.663 45.9999C262.996 44.6665 263.663 43.3332 264.496 42.3332C265.329 41.1665 266.329 40.3332 267.496 39.6665C268.829 38.9999 270.329 38.6665 271.996 38.6665C273.829 38.6665 275.163 38.9999 276.496 39.6665C277.663 40.3332 278.829 41.3332 279.496 42.4999C280.329 43.6665 280.829 44.9999 281.162 46.4999C281.496 47.9999 281.662 49.4999 281.662 50.9999H264.996C264.996 51.6665 265.163 52.6665 265.329 53.6665ZM278.663 45.4999C278.329 44.4999 277.829 43.6665 277.329 42.9999C276.663 42.3332 275.996 41.6665 275.163 41.3332C274.329 40.8332 273.329 40.6665 272.329 40.6665C271.163 40.6665 270.329 40.8332 269.329 41.3332C268.496 41.8332 267.829 42.3332 267.163 42.9999C266.496 43.6665 266.163 44.4999 265.663 45.4999C265.329 46.4999 264.996 47.4999 264.996 48.3332H279.163C279.163 47.4999 278.996 46.4999 278.663 45.4999ZM291.162 31.4999V41.9999H291.329C292.162 40.6665 292.996 39.8332 294.329 39.1665C295.496 38.6665 296.662 38.3332 297.829 38.3332C299.496 38.3332 300.829 38.4999 301.829 38.9999C302.829 39.4999 303.662 39.9999 304.329 40.8332C304.995 41.6665 305.329 42.4999 305.662 43.6665C305.829 44.8332 305.995 45.9999 305.995 47.3332V60.8332H299.996V48.4999C299.996 46.6665 299.662 45.3332 299.162 44.4999C298.662 43.6665 297.662 43.1665 296.162 43.1665C294.496 43.1665 293.329 43.6665 292.662 44.6665C291.996 45.6665 291.496 47.1665 291.496 49.4999V60.9999H285.496V31.4999H291.162ZM315.329 55.6665C316.162 56.4999 317.495 56.9999 319.162 56.9999C320.329 56.9999 321.495 56.6665 322.329 56.1665C323.162 55.4999 323.662 54.8332 323.995 54.1665H329.328C328.495 56.8332 327.162 58.6665 325.495 59.8332C323.662 60.9999 321.662 61.4999 319.162 61.4999C317.495 61.4999 315.829 61.1665 314.495 60.6665C313.162 60.1665 311.995 59.3332 310.995 58.3332C309.995 57.3332 309.329 56.1665 308.829 54.6665C308.329 53.3332 307.995 51.6665 307.995 49.9999C307.995 48.3332 308.329 46.8332 308.829 45.3332C309.329 43.9999 310.162 42.6665 311.162 41.6665C312.162 40.6665 313.329 39.8332 314.662 39.1665C315.995 38.4999 317.495 38.3332 319.162 38.3332C320.995 38.3332 322.662 38.6665 323.995 39.3332C325.328 39.9999 326.495 40.9999 327.328 42.1665C328.162 43.3332 328.828 44.8332 329.328 46.3332C329.662 47.8332 329.828 49.4999 329.828 51.1665H313.995C313.995 53.3332 314.495 54.8332 315.329 55.6665ZM322.162 44.1665C321.495 43.3332 320.329 42.9999 318.829 42.9999C317.829 42.9999 316.995 43.1665 316.495 43.4999C315.829 43.8332 315.329 44.1665 314.995 44.6665C314.662 45.1665 314.329 45.6665 314.162 46.1665L313.829 47.6665H323.662C323.329 46.1665 322.829 44.9999 322.162 44.1665ZM333.162 42.1665C333.828 41.1665 334.495 40.4999 335.495 39.9999C336.495 39.4999 337.495 38.9999 338.662 38.8332C339.828 38.6665 340.995 38.4999 342.328 38.4999C343.495 38.4999 344.495 38.4999 345.662 38.6665C346.828 38.8332 347.828 39.1665 348.828 39.4999C349.828 39.9999 350.495 40.4999 351.161 41.3332C351.828 42.1665 351.995 43.1665 351.995 44.4999V55.8332C351.995 56.8332 351.995 57.8332 352.161 58.6665C352.328 59.4999 352.495 60.1665 352.828 60.6665H346.662L346.328 59.6665L346.162 58.6665C345.162 59.6665 343.995 60.3332 342.828 60.6665C341.495 60.9999 340.162 61.3332 338.828 61.3332C337.828 61.3332 336.828 61.1665 335.828 60.9999C334.995 60.6665 334.162 60.3332 333.495 59.8332C332.828 59.3332 332.328 58.6665 331.828 57.8332C331.495 56.9999 331.328 55.9999 331.328 54.8332C331.328 53.6665 331.495 52.4999 331.995 51.8332C332.495 50.9999 332.995 50.3332 333.662 49.8332C334.328 49.3332 335.162 48.9999 335.995 48.6665C336.828 48.4999 337.828 48.1665 338.662 48.1665C339.495 47.9999 340.495 47.8332 341.328 47.8332C342.162 47.6665 342.995 47.6665 343.662 47.4999C344.328 47.3332 344.828 46.9999 345.328 46.8332C345.662 46.4999 345.828 45.9999 345.828 45.3332C345.828 44.6665 345.662 44.1665 345.495 43.8332C345.328 43.4999 344.995 43.1665 344.662 42.9999L343.495 42.4999L341.995 42.3332C340.828 42.3332 339.828 42.6665 339.162 43.1665C338.495 43.6665 338.162 44.4999 337.995 45.6665H331.995C332.162 44.3332 332.495 43.1665 333.162 42.1665ZM344.995 50.6665L343.828 50.9999C343.328 51.1665 342.995 51.1665 342.495 51.1665L340.995 51.3332L339.662 51.6665C339.162 51.8332 338.828 51.9999 338.495 52.1665C338.162 52.3332 337.828 52.6665 337.662 52.9999C337.495 53.3332 337.328 53.8332 337.328 54.3332C337.328 54.8332 337.495 55.3332 337.662 55.6665C337.828 55.9999 338.162 56.3332 338.495 56.4999C338.828 56.6665 339.162 56.8332 339.662 56.9999C340.162 57.1665 340.662 57.1665 340.995 57.1665C342.162 57.1665 343.162 56.9999 343.828 56.4999C344.495 56.1665 344.995 55.6665 345.328 54.9999C345.662 54.4999 345.828 53.8332 345.828 53.3332C345.828 52.8332 345.995 52.3332 345.995 51.9999V49.8332C345.662 50.4999 345.495 50.6665 344.995 50.6665ZM361.661 31.4999V60.8332H355.661V31.4999H361.661ZM377.661 38.9999V42.9999H373.328V53.8332C373.328 54.8332 373.494 55.4999 373.828 55.8332C374.161 56.1665 374.828 56.3332 375.828 56.3332H376.828C377.161 56.3332 377.494 56.3332 377.661 56.1665V60.8332C377.161 60.9999 376.661 60.9999 375.994 60.9999H374.161C373.161 60.9999 372.328 60.9999 371.494 60.8332C370.661 60.6665 369.995 60.4999 369.328 60.1665C368.661 59.8332 368.161 59.3332 367.828 58.6665C367.495 57.9999 367.328 57.1665 367.328 55.9999V42.9999H363.661V38.9999H367.328V31.4999H373.328V38.9999H377.661ZM385.994 31.4999V41.9999H386.161C386.994 40.6665 387.828 39.8332 389.161 39.1665C390.328 38.6665 391.494 38.3332 392.661 38.3332C394.327 38.3332 395.661 38.4999 396.661 38.9999C397.661 39.4999 398.494 39.9999 399.161 40.8332C399.827 41.6665 400.161 42.4999 400.494 43.6665C400.661 44.8332 400.827 45.9999 400.827 47.3332V60.8332H394.827V48.4999C394.827 46.6665 394.494 45.3332 393.994 44.4999C393.494 43.6665 392.494 43.1665 390.994 43.1665C389.328 43.1665 388.161 43.6665 387.494 44.6665C386.828 45.6665 386.328 47.1665 386.328 49.4999V60.9999H379.994V31.4999H385.994ZM239.496 31.4999V35.8332H236.83V31.4999H239.496ZM239.496 38.9999V60.8332H236.83V38.9999H239.496Z" fill="white"/>
<path d="M60.999 6.16667L61.8323 0L37.666 6.5L42.1659 17.5L35.166 24.5L49.9991 20.5L60.999 6.16667Z" fill="#FFD52E"/>
<path d="M60.9989 6.16699L49.999 20.5003L59.4989 18.0003L60.9989 6.16699Z" fill="#FCBA2F"/>
<path d="M37.6659 6.50004L35.3326 0.833374L17.4995 18.5L26.9994 25.8334L24.4994 35.3334L35.1659 24.5L37.6659 6.50004Z" fill="#FFD52E"/>
<path d="M37.666 6.49988L35.166 24.4999L42.1659 17.4999L37.666 6.49988Z" fill="#FCBA2F"/>
<path d="M17.4992 18.4997L12.6659 14.6664L6.16602 38.9997L17.9992 40.4997L20.4991 49.9997L24.4991 35.3331L17.4992 18.4997Z" fill="#FFD52E"/>
<path d="M17.4995 18.5001L24.4994 35.3335L26.9994 25.8335L17.4995 18.5001Z" fill="#FCBA2F"/>
<path d="M6.16609 38.9998L-0.000488281 38.1665L6.49941 62.3332L17.4992 57.8332L24.4991 64.8332L20.4992 49.9998L6.16609 38.9998Z" fill="#FFD52E"/>
<path d="M6.16602 38.9999L20.4991 49.9999L17.9992 40.4999L6.16602 38.9999Z" fill="#FCBA2F"/>
<path d="M6.49959 62.3331L0.833008 64.6665L18.4994 82.4998L25.8326 72.9998L35.3325 75.4998L24.4993 64.8331L6.49959 62.3331Z" fill="#FFD52E"/>
<path d="M6.49951 62.3336L24.4992 64.8336L17.4993 57.8336L6.49951 62.3336Z" fill="#FCBA2F"/>
<path d="M18.4998 82.4998L14.6665 87.3331L38.9995 93.8331L40.4994 81.9998L49.9993 79.4998L35.3329 75.4998L18.4998 82.4998Z" fill="#FFD52E"/>
<path d="M18.4995 82.4996L35.3326 75.4996L25.8327 72.9996L18.4995 82.4996Z" fill="#FCBA2F"/>
<path d="M38.9993 93.8331L38.166 99.9998L62.3323 93.4998L57.8324 82.4998L64.8323 75.4998L49.9992 79.4998L38.9993 93.8331Z" fill="#FFD52E"/>
<path d="M38.999 93.8336L49.9989 79.5002L40.499 82.0002L38.999 93.8336Z" fill="#FCBA2F"/>
<path d="M62.332 93.4997L64.6653 99.1664L82.4984 81.4997L72.9985 74.1664L75.4985 64.6664L64.832 75.4997L62.332 93.4997Z" fill="#FFD52E"/>
<path d="M62.332 93.4998L64.8319 75.4998L57.832 82.4998L62.332 93.4998Z" fill="#FCBA2F"/>
<path d="M82.4984 81.5L87.3317 85.3333L93.8316 61L81.9984 59.5L79.4985 50L75.4985 64.6667L82.4984 81.5Z" fill="#FFD52E"/>
<path d="M82.4984 81.4997L75.4985 64.6664L72.9985 74.1664L82.4984 81.4997Z" fill="#FCBA2F"/>
<path d="M93.8316 61.0002L99.9982 61.8335L93.4983 37.6669L82.4984 42.1669L75.4985 35.1669L79.4985 50.0002L93.8316 61.0002Z" fill="#FFD52E"/>
<path d="M93.8317 61L79.4985 50L81.9985 59.5L93.8317 61Z" fill="#FCBA2F"/>
<path d="M93.4984 37.6667L99.165 35.3333L81.4986 17.5L74.1654 27L64.6655 24.5L75.4987 35.1667L93.4984 37.6667Z" fill="#FFD52E"/>
<path d="M93.4983 37.6669L75.4985 35.1669L82.4984 42.1669L93.4983 37.6669Z" fill="#FCBA2F"/>
<path d="M81.4986 17.5003L85.3318 12.667L60.9989 6.16699L59.4989 18.0003L49.999 20.5003L64.6655 24.5003L81.4986 17.5003Z" fill="#FFD52E"/>
<path d="M81.4986 17.5L64.6655 24.5L74.1654 27L81.4986 17.5Z" fill="#FCBA2F"/>
</g>
<defs>
<clipPath id="clip0_310_5">
<rect width="400.661" height="100" fill="white"/>
</clipPath>
</defs>
</svg>
