<svg width="92" height="100" viewBox="0 0 92 100" fill="none" xmlns="http://www.w3.org/2000/svg">
<g clip-path="url(#clip0_521_185)">
<path d="M82.355 18.3019L54.9033 2.45616C52.1211 0.849901 48.9652 0.00427246 45.7527 0.00427246C42.5401 0.00427246 39.3842 0.849901 36.6021 2.45616L19.0635 12.5828V33.7207L45.7527 18.3019L73.2044 34.1477V65.8544L91.5056 76.4234V34.1477C91.505 30.9358 90.659 27.7805 89.0528 24.9991C87.4466 22.2176 85.1366 19.9079 82.355 18.3019Z" fill="white"/>
<path d="M45.7529 81.6992L18.3012 65.8534V34.1467L0 23.5778V65.8534C0.000616951 69.0654 0.846538 72.2206 2.45277 75.002C4.059 77.7835 6.36897 80.0932 9.15058 81.6992L36.6023 97.606C39.3845 99.2122 42.5404 100.058 45.7529 100.058C48.9654 100.058 52.1214 99.2122 54.9035 97.606L72.4421 87.4793V66.2957L45.7529 81.6992Z" fill="white"/>
</g>
<defs>
<clipPath id="clip0_521_185">
<rect width="91.5058" height="100.001" fill="white"/>
</clipPath>
</defs>
</svg>
