<svg width="470" height="100" viewBox="0 0 470 100" fill="none" xmlns="http://www.w3.org/2000/svg">
<path d="M187.83 71L178.823 34.972H189.428L192.914 51.6785C193.205 53.4702 193.471 55.2377 193.714 56.981C193.956 58.7243 194.222 60.516 194.513 62.3562H194.803C195.142 60.516 195.457 58.7001 195.747 56.9084C196.086 55.1167 196.474 53.3734 196.91 51.6785L200.905 34.972H210.129L214.197 51.6785C214.633 53.4702 215.02 55.2377 215.359 56.981C215.747 58.7243 216.11 60.516 216.449 62.3562H216.739C217.078 60.516 217.345 58.7243 217.538 56.981C217.781 55.2377 218.071 53.4702 218.41 51.6785L221.824 34.972H231.703L223.059 71H210.565L207.297 56.6178C206.958 54.923 206.619 53.2281 206.28 51.5332C205.989 49.8384 205.674 48.0224 205.335 46.0855H205.045C204.706 48.0224 204.391 49.8384 204.101 51.5332C203.858 53.2281 203.568 54.923 203.229 56.6178L200.033 71H187.83ZM252.953 71.8716C249.515 71.8716 246.416 71.1211 243.656 69.6199C240.895 68.1187 238.716 65.9638 237.118 63.1552C235.52 60.3465 234.721 56.9568 234.721 52.986C234.721 49.0636 235.52 45.6981 237.118 42.8894C238.765 40.0808 240.895 37.9259 243.51 36.4247C246.125 34.8751 248.861 34.1003 251.718 34.1003C255.156 34.1003 257.989 34.8751 260.217 36.4247C262.493 37.9259 264.188 39.9839 265.301 42.5989C266.464 45.1654 267.045 48.0951 267.045 51.388C267.045 52.308 266.996 53.2281 266.899 54.1482C266.803 55.0198 266.706 55.6736 266.609 56.1094H245.036C245.52 58.7243 246.609 60.6613 248.304 61.9204C249.999 63.131 252.033 63.7363 254.406 63.7363C256.972 63.7363 259.563 62.9373 262.178 61.3393L265.737 67.804C263.897 69.063 261.839 70.0557 259.563 70.7821C257.287 71.5085 255.084 71.8716 252.953 71.8716ZM244.963 49.0636H257.965C257.965 47.0782 257.481 45.4559 256.512 44.1969C255.592 42.8894 254.067 42.2357 251.936 42.2357C250.29 42.2357 248.813 42.8168 247.505 43.979C246.198 45.0927 245.35 46.7876 244.963 49.0636ZM292.51 71.8716C290.912 71.8716 289.289 71.4842 287.643 70.7095C286.045 69.8862 284.544 68.6998 283.139 67.1502H282.849L281.977 71H273.624V20.0813H284.302V32.5749L284.011 38.0954C285.415 36.8363 286.941 35.8678 288.587 35.1899C290.234 34.4635 291.88 34.1003 293.527 34.1003C296.432 34.1003 298.95 34.8509 301.081 36.3521C303.212 37.8532 304.834 39.9839 305.948 42.7441C307.11 45.4559 307.691 48.652 307.691 52.3322C307.691 56.4484 306.964 59.9834 305.512 62.9373C304.059 65.8428 302.17 68.0703 299.846 69.6199C297.57 71.1211 295.125 71.8716 292.51 71.8716ZM290.04 63.1552C291.88 63.1552 293.454 62.3078 294.761 60.6129C296.069 58.918 296.723 56.2304 296.723 52.5502C296.723 46.0612 294.64 42.8168 290.476 42.8168C288.345 42.8168 286.287 43.9063 284.302 46.0855V60.8308C285.27 61.7024 286.239 62.3078 287.207 62.6467C288.176 62.9857 289.12 63.1552 290.04 63.1552Z" fill="#191919"/>
<path d="M333.443 71.8716C330.343 71.8716 327.535 71.1453 325.017 69.6925C322.499 68.2398 320.513 66.1333 319.06 63.3731C317.608 60.6129 316.881 57.2958 316.881 53.4218C316.881 49.451 317.656 46.0855 319.206 43.3252C320.804 40.565 322.886 38.4586 325.453 37.0058C328.067 35.5531 330.876 34.8267 333.878 34.8267C336.203 34.8267 338.188 35.2383 339.835 36.0615C341.53 36.8847 342.982 37.8532 344.193 38.967L341.142 42.8894C340.125 41.9693 339.036 41.2188 337.873 40.6377C336.76 40.0566 335.501 39.766 334.096 39.766C331.966 39.766 330.053 40.3471 328.358 41.5093C326.712 42.6231 325.404 44.2211 324.436 46.3034C323.516 48.3372 323.056 50.71 323.056 53.4218C323.056 57.4411 324.048 60.7097 326.034 63.2278C328.067 65.6975 330.707 66.9323 333.951 66.9323C335.598 66.9323 337.123 66.5933 338.527 65.9154C339.932 65.189 341.166 64.3416 342.232 63.3731L344.847 67.3681C343.249 68.7725 341.481 69.8862 339.544 70.7095C337.607 71.4842 335.573 71.8716 333.443 71.8716ZM351.824 71V19.2823H357.78V33.3739L357.562 40.6377C359.257 39.0396 361.025 37.6838 362.865 36.57C364.753 35.4078 366.908 34.8267 369.329 34.8267C373.058 34.8267 375.77 36.0131 377.465 38.3859C379.208 40.7103 380.08 44.1242 380.08 48.6278V71H374.123V49.4268C374.123 46.1339 373.591 43.7369 372.525 42.2357C371.46 40.7345 369.765 39.9839 367.441 39.9839C365.649 39.9839 364.027 40.444 362.574 41.364C361.17 42.2841 359.572 43.64 357.78 45.4317V71H351.824ZM398.671 71.8716C395.717 71.8716 393.247 71 391.262 69.2567C389.325 67.465 388.356 64.9953 388.356 61.8477C388.356 57.9737 390.075 55.0198 393.514 52.986C397 50.9037 402.496 49.451 410.002 48.6278C410.002 47.1266 409.784 45.6981 409.348 44.3422C408.961 42.9863 408.235 41.8967 407.169 41.0735C406.152 40.2018 404.675 39.766 402.738 39.766C400.705 39.766 398.792 40.1534 397 40.9282C395.208 41.703 393.61 42.5747 392.206 43.5432L389.882 39.4028C391.528 38.3375 393.538 37.3206 395.911 36.3521C398.332 35.3352 400.947 34.8267 403.755 34.8267C408.065 34.8267 411.189 36.1584 413.126 38.8217C415.063 41.4367 416.031 44.9475 416.031 49.3541V71H411.092L410.583 66.787H410.365C408.719 68.1429 406.903 69.3293 404.918 70.3463C402.981 71.3632 400.898 71.8716 398.671 71.8716ZM400.414 67.0776C402.109 67.0776 403.707 66.666 405.208 65.8428C406.709 65.0195 408.307 63.8573 410.002 62.3562V52.5502C404.143 53.2765 400.027 54.3661 397.654 55.8188C395.329 57.2716 394.167 59.1359 394.167 61.4119C394.167 63.3973 394.773 64.8501 395.983 65.7701C397.194 66.6418 398.671 67.0776 400.414 67.0776ZM426.339 71V35.6983H431.278L431.787 42.0904H432.004C433.215 39.8629 434.692 38.0954 436.435 36.7879C438.179 35.4804 440.043 34.8267 442.028 34.8267C443.433 34.8267 444.692 35.0688 445.806 35.5531L444.643 40.7829C444.062 40.5892 443.53 40.444 443.045 40.3471C442.561 40.2503 441.956 40.2018 441.229 40.2018C439.728 40.2018 438.154 40.8072 436.508 42.0178C434.91 43.2284 433.506 45.3349 432.295 48.3372V71H426.339ZM461.835 71.8716C458.058 71.8716 455.419 70.7821 453.918 68.603C452.465 66.4239 451.738 63.591 451.738 60.1044V40.565H446.509V36.0615L452.029 35.6983L452.755 25.8197H457.767V35.6983H467.283V40.565H457.767V60.1771C457.767 62.3562 458.155 64.051 458.93 65.2617C459.753 66.4239 461.181 67.005 463.215 67.005C463.845 67.005 464.523 66.9081 465.249 66.7144C465.975 66.4723 466.629 66.2544 467.21 66.0607L468.372 70.5642C467.404 70.9032 466.339 71.1937 465.176 71.4358C464.063 71.7264 462.949 71.8716 461.835 71.8716Z" fill="#191919"/>
<g clip-path="url(#clip0_73_3)">
<path d="M114.858 32.5856L111.4 18.1034L81.075 23.2211L77.6178 8.73901L-0.0195312 21.7785L16.3681 90.6231L46.6935 85.5326L50.1508 100.015L127.788 86.9753L145.183 27.5222L114.858 32.5856Z" fill="#FBB92F"/>
<path d="M16.3957 90.623L54.8059 84.1714L50.1782 99.9875L127.815 86.9481L114.885 32.5856L106.8 33.9467L111.428 18.1306L33.7905 31.17L16.3955 90.623H16.3957Z" fill="#F79420"/>
<path d="M93.9514 77.5837L106.719 33.9467L84.4509 37.6761L80.9937 23.194L33.6816 31.1428L46.6393 85.5053L54.6971 84.1442L93.9514 77.5837Z" fill="#F37A23"/>
<path d="M67.7091 40.5345L54.9419 84.1715L94.169 77.5838L84.6684 37.6761L67.7091 40.5345Z" fill="#E46025"/>
</g>
<defs>
<clipPath id="clip0_73_3">
<rect width="145.182" height="91.2549" fill="white" transform="translate(0 8.74512)"/>
</clipPath>
</defs>
</svg>
